<?xml version="1.0" encoding="UTF-8"?>
<svg xmlns="http://www.w3.org/2000/svg"
     width="1440" height="900"
     viewBox="0 0 1440 900"
     font-family="'Helvetica Neue','Segoe UI',Helvetica,Arial,sans-serif">
  <title>StichMan v2 — Main Window Mockup (Aurora Light, 1440×900)</title>

  <defs>
    <filter id="card-shadow" x="-5%" y="-10%" width="110%" height="130%">
      <feDropShadow dx="0" dy="1" stdDeviation="2" flood-color="#000000" flood-opacity="0.06"/>
    </filter>
    <filter id="card-shadow-hover" x="-5%" y="-10%" width="110%" height="130%">
      <feDropShadow dx="0" dy="2" stdDeviation="5" flood-color="#000000" flood-opacity="0.10"/>
    </filter>
  </defs>

  <!-- ══════════════════════════════════════════════════════════
       WINDOW BACKGROUND
       ══════════════════════════════════════════════════════════ -->
  <rect width="1440" height="900" fill="#f5f5f7"/>

  <!-- ══════════════════════════════════════════════════════════
       MENU BAR   y=0  h=28
       ══════════════════════════════════════════════════════════ -->
  <rect x="0" y="0" width="1440" height="28" fill="#f5f5f7"/>
  <line x1="0" y1="28" x2="1440" y2="28" stroke="#d1d5db" stroke-width="0.5"/>
  <!-- macOS traffic lights placeholder -->
  <circle cx="20" cy="14" r="5" fill="#ff5f57"/>
  <circle cx="36" cy="14" r="5" fill="#febc2e"/>
  <circle cx="52" cy="14" r="5" fill="#28c840"/>
  <!-- App name -->
  <text x="74" y="19" font-size="13" font-weight="700" fill="#111111">StichMan</text>
  <!-- Menu items -->
  <text x="144" y="19" font-size="13" fill="#44474f">Datei</text>
  <text x="192" y="19" font-size="13" fill="#44474f">Hilfe</text>

  <!-- ══════════════════════════════════════════════════════════
       TOOLBAR   y=28  h=48
       ══════════════════════════════════════════════════════════ -->
  <rect x="0" y="28" width="1440" height="48" fill="#ffffff"/>
  <line x1="0" y1="75" x2="1440" y2="75" stroke="#e5e7eb" stroke-width="1"/>

  <!-- Toolbar button: Datei hinzufügen -->
  <!-- file-plus icon at (12, 44) -->
  <g transform="translate(12,44)" stroke="#44474f" fill="none" stroke-width="1.5" stroke-linecap="round" stroke-linejoin="round">
    <path d="M0 0 L10 0 L16 6 L16 16 L0 16 Z"/>
    <path d="M10 0 L10 6 L16 6"/>
    <line x1="5" y1="10" x2="11" y2="10"/>
    <line x1="8" y1="7" x2="8" y2="13"/>
  </g>
  <text x="34" y="56" font-size="12" fill="#44474f">Datei hinzufügen</text>

  <!-- Toolbar button: Ordner hinzufügen -->
  <g transform="translate(160,44)" stroke="#44474f" fill="none" stroke-width="1.5" stroke-linecap="round" stroke-linejoin="round">
    <path d="M0 4 L0 14 L16 14 L16 6 L9 6 L7 4 Z"/>
    <line x1="10" y1="9" x2="14" y2="9"/>
    <line x1="12" y1="7" x2="12" y2="11"/>
  </g>
  <text x="182" y="56" font-size="12" fill="#44474f">Ordner hinzufügen</text>

  <!-- Toolbar button: Speichern -->
  <g transform="translate(330,44)" stroke="#44474f" fill="none" stroke-width="1.5" stroke-linecap="round" stroke-linejoin="round">
    <rect x="0" y="0" width="16" height="16" rx="2"/>
    <rect x="4" y="0" width="8" height="5"/>
    <rect x="3" y="9" width="10" height="6"/>
  </g>
  <text x="352" y="56" font-size="12" fill="#44474f">Speichern</text>

  <!-- Toolbar separator -->
  <line x1="450" y1="36" x2="450" y2="68" stroke="#e5e7eb" stroke-width="1"/>

  <!-- Toolbar button: Einstellungen (settings/gear icon) -->
  <g transform="translate(466,44)" stroke="#44474f" fill="none" stroke-width="1.5" stroke-linecap="round">
    <circle cx="8" cy="8" r="2.5"/>
    <circle cx="8" cy="8" r="5.5"/>
    <line x1="8" y1="1" x2="8" y2="2.5"/>
    <line x1="8" y1="13.5" x2="8" y2="15"/>
    <line x1="1" y1="8" x2="2.5" y2="8"/>
    <line x1="13.5" y1="8" x2="15" y2="8"/>
    <line x1="3" y1="3" x2="4" y2="4"/>
    <line x1="12" y1="3" x2="11" y2="4"/>
    <line x1="3" y1="13" x2="4" y2="12"/>
    <line x1="12" y1="13" x2="11" y2="12"/>
  </g>
  <text x="488" y="56" font-size="12" fill="#44474f">Einstellungen</text>

  <!-- Toolbar button: KI Analyse (brain icon) -->
  <g transform="translate(614,44)" stroke="#0a84ff" fill="none" stroke-width="1.5" stroke-linecap="round" stroke-linejoin="round">
    <path d="M5 13 C3 13 1 11.5 1 9.5 C0 9 0 8 1 7.5 C1 5.5 3 4 5 4.5 C6 3 8 2 10 3 C12 2 14.5 3.5 14 6 C15.5 6.5 16 8 14.5 9 C15 11 13.5 13 11.5 13 C11 14.5 9 15.5 7 14.5 C6.5 15 5.5 14.5 5 13 Z"/>
    <line x1="8" y1="6" x2="8" y2="11"/>
    <line x1="5.5" y1="8.5" x2="10.5" y2="8.5"/>
  </g>
  <text x="636" y="56" font-size="12" fill="#0a84ff" font-weight="500">KI Analyse</text>

  <!-- Library path, right-aligned -->
  <text x="1428" y="56" font-size="11" fill="#7b7c80" text-anchor="end">~/Stickdateien</text>

  <!-- ══════════════════════════════════════════════════════════
       SIDEBAR   x=0  y=76  w=240  h=802
       ══════════════════════════════════════════════════════════ -->
  <rect x="0" y="76" width="240" height="802" fill="#f5f5f7"/>
  <line x1="240" y1="76" x2="240" y2="878" stroke="#d1d5db" stroke-width="1"/>

  <!-- Sidebar section header -->
  <text x="16" y="105" font-size="10" font-weight="700" fill="#7b7c80" letter-spacing="0.8">ORDNER</text>

  <!-- Folder item helper: icon path (folder shape, 16x13, relative to group origin) -->
  <!-- Alle Dateien (resting) -->
  <rect x="8" y="112" width="224" height="32" rx="6" fill="none"/>
  <g transform="translate(16,121)" stroke="#7b7c80" fill="none" stroke-width="1.2" stroke-linejoin="round">
    <path d="M0 3 L0 13 L16 13 L16 5 L9 5 L7 3 Z"/>
  </g>
  <text x="38" y="133" font-size="13" fill="#44474f">Alle Dateien</text>
  <text x="228" y="133" font-size="11" fill="#b4b7bd" text-anchor="end">38</text>

  <!-- Blumen -->
  <rect x="8" y="144" width="224" height="32" rx="6" fill="none"/>
  <g transform="translate(16,153)" stroke="#7b7c80" fill="none" stroke-width="1.2" stroke-linejoin="round">
    <path d="M0 3 L0 13 L16 13 L16 5 L9 5 L7 3 Z"/>
  </g>
  <text x="38" y="165" font-size="13" fill="#44474f">Blumen</text>
  <text x="228" y="165" font-size="11" fill="#b4b7bd" text-anchor="end">14</text>

  <!-- Tiere -->
  <rect x="8" y="176" width="224" height="32" rx="6" fill="none"/>
  <g transform="translate(16,185)" stroke="#7b7c80" fill="none" stroke-width="1.2" stroke-linejoin="round">
    <path d="M0 3 L0 13 L16 13 L16 5 L9 5 L7 3 Z"/>
  </g>
  <text x="38" y="197" font-size="13" fill="#44474f">Tiere</text>
  <text x="228" y="197" font-size="11" fill="#b4b7bd" text-anchor="end">9</text>

  <!-- Weihnachten (SELECTED) -->
  <rect x="8" y="208" width="224" height="32" rx="6" fill="#cee6ff"/>
  <g transform="translate(16,217)" stroke="#0a84ff" fill="none" stroke-width="1.3" stroke-linejoin="round">
    <path d="M0 3 L0 13 L16 13 L16 5 L9 5 L7 3 Z"/>
  </g>
  <text x="38" y="229" font-size="13" font-weight="600" fill="#086dd6">Weihnachten</text>
  <text x="228" y="229" font-size="11" fill="#086dd6" text-anchor="end">38</text>

  <!-- Geometrie -->
  <rect x="8" y="240" width="224" height="32" rx="6" fill="none"/>
  <g transform="translate(16,249)" stroke="#7b7c80" fill="none" stroke-width="1.2" stroke-linejoin="round">
    <path d="M0 3 L0 13 L16 13 L16 5 L9 5 L7 3 Z"/>
  </g>
  <text x="38" y="261" font-size="13" fill="#44474f">Geometrie</text>
  <text x="228" y="261" font-size="11" fill="#b4b7bd" text-anchor="end">6</text>

  <!-- Sonstiges -->
  <rect x="8" y="272" width="224" height="32" rx="6" fill="none"/>
  <g transform="translate(16,281)" stroke="#7b7c80" fill="none" stroke-width="1.2" stroke-linejoin="round">
    <path d="M0 3 L0 13 L16 13 L16 5 L9 5 L7 3 Z"/>
  </g>
  <text x="38" y="293" font-size="13" fill="#44474f">Sonstiges</text>
  <text x="228" y="293" font-size="11" fill="#b4b7bd" text-anchor="end">5</text>

  <!-- Add Folder button (pinned bottom) -->
  <rect x="8" y="848" width="224" height="30" rx="6" fill="none" stroke="#d1d5db" stroke-width="1"/>
  <text x="120" y="868" font-size="12" fill="#7b7c80" text-anchor="middle">+ Neuer Ordner</text>

  <!-- ══════════════════════════════════════════════════════════
       CENTRE PANEL   x=240  y=76  w=480  h=802
       ══════════════════════════════════════════════════════════ -->
  <rect x="240" y="76" width="480" height="802" fill="#f5f5f7"/>
  <line x1="720" y1="76" x2="720" y2="878" stroke="#d1d5db" stroke-width="1"/>

  <!-- Search bar -->
  <rect x="252" y="88" width="456" height="34" rx="17" fill="#ffffff" stroke="#d1d5db" stroke-width="1"/>
  <!-- magnifier icon -->
  <circle cx="272" cy="105" r="6" stroke="#7b7c80" fill="none" stroke-width="1.5"/>
  <line x1="276.5" y1="109.5" x2="281" y2="114" stroke="#7b7c80" stroke-width="1.5" stroke-linecap="round"/>
  <text x="291" y="110" font-size="13" fill="#b4b7bd">Suchen…</text>
  <!-- clear X -->
  <g transform="translate(692,100)" stroke="#b4b7bd" stroke-width="1.5" stroke-linecap="round">
    <line x1="0" y1="0" x2="8" y2="8"/>
    <line x1="8" y1="0" x2="0" y2="8"/>
  </g>

  <!-- Filter chips -->
  <rect x="252" y="132" width="40" height="24" rx="12" fill="#0a84ff"/>
  <text x="272" y="148" font-size="11" fill="#ffffff" text-anchor="middle" font-weight="500">Alle</text>

  <rect x="300" y="132" width="40" height="24" rx="12" fill="none" stroke="#d1d5db" stroke-width="1"/>
  <text x="320" y="148" font-size="11" fill="#44474f" text-anchor="middle">PES</text>

  <rect x="348" y="132" width="40" height="24" rx="12" fill="none" stroke="#d1d5db" stroke-width="1"/>
  <text x="368" y="148" font-size="11" fill="#44474f" text-anchor="middle">DST</text>

  <rect x="396" y="132" width="40" height="24" rx="12" fill="none" stroke="#d1d5db" stroke-width="1"/>
  <text x="416" y="148" font-size="11" fill="#44474f" text-anchor="middle">JEF</text>

  <rect x="444" y="132" width="40" height="24" rx="12" fill="none" stroke="#d1d5db" stroke-width="1"/>
  <text x="464" y="148" font-size="11" fill="#44474f" text-anchor="middle">VP3</text>

  <!-- File count -->
  <text x="252" y="174" font-size="11" fill="#7b7c80">38 Dateien · Weihnachten</text>

  <!-- ── Card 0: Weihnachts-Stern (resting) ── -->
  <rect x="252" y="182" width="456" height="72" rx="8" fill="#ffffff" stroke="#e5e7eb" stroke-width="1" filter="url(#card-shadow)"/>
  <rect x="264" y="194" width="48" height="48" rx="6" fill="#f5f5f7"/>
  <line x1="270" y1="210" x2="305" y2="210" stroke="#d1d5db" stroke-width="1"/>
  <line x1="270" y1="220" x2="298" y2="220" stroke="#d1d5db" stroke-width="1"/>
  <line x1="270" y1="230" x2="305" y2="230" stroke="#d1d5db" stroke-width="1"/>
  <text x="322" y="202" font-size="13" font-weight="500" fill="#111111">Weihnachts-Stern.pes</text>
  <rect x="322" y="210" width="30" height="16" rx="8" fill="#e8f2ff"/>
  <text x="337" y="222" font-size="10" fill="#086dd6" text-anchor="middle">PES</text>
  <rect x="358" y="210" width="30" height="16" rx="8" fill="#e8f2ff"/>
  <text x="373" y="222" font-size="10" fill="#086dd6" text-anchor="middle">DST</text>
  <rect x="322" y="230" width="64" height="14" rx="7" fill="#dcfce7"/>
  <text x="354" y="241" font-size="9" fill="#2f9e44" text-anchor="middle">KI Analysiert</text>

  <!-- ── Card 1: Schneeflocke (not analysed) ── -->
  <rect x="252" y="262" width="456" height="72" rx="8" fill="#ffffff" stroke="#e5e7eb" stroke-width="1" filter="url(#card-shadow)"/>
  <rect x="264" y="274" width="48" height="48" rx="6" fill="#f5f5f7"/>
  <line x1="270" y1="290" x2="305" y2="290" stroke="#d1d5db" stroke-width="1"/>
  <line x1="270" y1="300" x2="298" y2="300" stroke="#d1d5db" stroke-width="1"/>
  <line x1="270" y1="310" x2="305" y2="310" stroke="#d1d5db" stroke-width="1"/>
  <text x="322" y="282" font-size="13" font-weight="500" fill="#111111">Schneeflocke-01.pes</text>
  <rect x="322" y="290" width="30" height="16" rx="8" fill="#e8f2ff"/>
  <text x="337" y="302" font-size="10" fill="#086dd6" text-anchor="middle">PES</text>
  <rect x="322" y="310" width="80" height="14" rx="7" fill="#f5f5f7" stroke="#e5e7eb" stroke-width="1"/>
  <text x="362" y="321" font-size="9" fill="#7b7c80" text-anchor="middle">Nicht analysiert</text>

  <!-- ── Card 2: Weihnachts-Rentier (SELECTED) ── -->
  <rect x="252" y="342" width="456" height="72" rx="8" fill="#e8f4ff" stroke="#0a84ff" stroke-width="1.5" filter="url(#card-shadow-hover)"/>
  <rect x="264" y="354" width="48" height="48" rx="6" fill="#cee6ff"/>
  <!-- mini silhouette in thumbnail -->
  <ellipse cx="288" cy="374" rx="10" ry="8" fill="#086dd6" opacity="0.22"/>
  <ellipse cx="288" cy="363" rx="6" ry="5" fill="#086dd6" opacity="0.22"/>
  <text x="322" y="362" font-size="13" font-weight="600" fill="#086dd6">Weihnachts-Rentier.pes</text>
  <rect x="322" y="370" width="30" height="16" rx="8" fill="#0a84ff"/>
  <text x="337" y="382" font-size="10" fill="#ffffff" text-anchor="middle">PES</text>
  <rect x="358" y="370" width="30" height="16" rx="8" fill="#0a84ff"/>
  <text x="373" y="382" font-size="10" fill="#ffffff" text-anchor="middle">DST</text>
  <rect x="322" y="390" width="64" height="14" rx="7" fill="#dcfce7"/>
  <text x="354" y="401" font-size="9" fill="#2f9e44" text-anchor="middle">KI Analysiert</text>

  <!-- ── Card 3: Christbaum ── -->
  <rect x="252" y="422" width="456" height="72" rx="8" fill="#ffffff" stroke="#e5e7eb" stroke-width="1" filter="url(#card-shadow)"/>
  <rect x="264" y="434" width="48" height="48" rx="6" fill="#f5f5f7"/>
  <line x1="270" y1="450" x2="305" y2="450" stroke="#d1d5db" stroke-width="1"/>
  <line x1="270" y1="460" x2="298" y2="460" stroke="#d1d5db" stroke-width="1"/>
  <line x1="270" y1="470" x2="305" y2="470" stroke="#d1d5db" stroke-width="1"/>
  <text x="322" y="442" font-size="13" font-weight="500" fill="#111111">Christbaum-Komplex.pes</text>
  <rect x="322" y="450" width="30" height="16" rx="8" fill="#e8f2ff"/>
  <text x="337" y="462" font-size="10" fill="#086dd6" text-anchor="middle">PES</text>
  <rect x="322" y="470" width="64" height="14" rx="7" fill="#dcfce7"/>
  <text x="354" y="481" font-size="9" fill="#2f9e44" text-anchor="middle">KI Analysiert</text>

  <!-- ── Card 4: Nikolaus-Stiefel (not analysed) ── -->
  <rect x="252" y="502" width="456" height="72" rx="8" fill="#ffffff" stroke="#e5e7eb" stroke-width="1" filter="url(#card-shadow)"/>
  <rect x="264" y="514" width="48" height="48" rx="6" fill="#f5f5f7"/>
  <line x1="270" y1="530" x2="305" y2="530" stroke="#d1d5db" stroke-width="1"/>
  <line x1="270" y1="540" x2="298" y2="540" stroke="#d1d5db" stroke-width="1"/>
  <line x1="270" y1="550" x2="305" y2="550" stroke="#d1d5db" stroke-width="1"/>
  <text x="322" y="522" font-size="13" font-weight="500" fill="#111111">Nikolaus-Stiefel.dst</text>
  <rect x="322" y="530" width="30" height="16" rx="8" fill="#e8f2ff"/>
  <text x="337" y="542" font-size="10" fill="#086dd6" text-anchor="middle">DST</text>
  <rect x="322" y="550" width="80" height="14" rx="7" fill="#f5f5f7" stroke="#e5e7eb" stroke-width="1"/>
  <text x="362" y="561" font-size="9" fill="#7b7c80" text-anchor="middle">Nicht analysiert</text>

  <!-- ── Card 5: Glocken-Bordüre ── -->
  <rect x="252" y="582" width="456" height="72" rx="8" fill="#ffffff" stroke="#e5e7eb" stroke-width="1" filter="url(#card-shadow)"/>
  <rect x="264" y="594" width="48" height="48" rx="6" fill="#f5f5f7"/>
  <line x1="270" y1="610" x2="305" y2="610" stroke="#d1d5db" stroke-width="1"/>
  <line x1="270" y1="620" x2="298" y2="620" stroke="#d1d5db" stroke-width="1"/>
  <line x1="270" y1="630" x2="305" y2="630" stroke="#d1d5db" stroke-width="1"/>
  <text x="322" y="602" font-size="13" font-weight="500" fill="#111111">Glocken-Bordüre.pes</text>
  <rect x="322" y="610" width="30" height="16" rx="8" fill="#e8f2ff"/>
  <text x="337" y="622" font-size="10" fill="#086dd6" text-anchor="middle">PES</text>
  <rect x="322" y="630" width="64" height="14" rx="7" fill="#dcfce7"/>
  <text x="354" y="641" font-size="9" fill="#2f9e44" text-anchor="middle">KI Analysiert</text>

  <!-- ══════════════════════════════════════════════════════════
       RIGHT PANEL   x=720  y=76  w=720  h=802
       ══════════════════════════════════════════════════════════ -->
  <rect x="720" y="76" width="720" height="802" fill="#ffffff"/>

  <!-- Preview image -->
  <rect x="740" y="92" width="680" height="190" rx="8" fill="#f5f5f7"/>

  <!-- Decorative stitch art in preview (suggestion of reindeer design) -->
  <!-- Background stitch lines -->
  <polyline points="790,155 820,138 852,156 884,134 916,158 948,139 980,157 1012,140 1044,158 1076,142 1108,160 1140,144 1170,162 1200,148"
    stroke="#0a84ff" fill="none" stroke-width="1.5" opacity="0.25" stroke-linecap="round" stroke-linejoin="round"/>
  <polyline points="800,172 832,162 864,174 896,163 928,177 960,165 992,178"
    stroke="#228B22" fill="none" stroke-width="1.5" opacity="0.25" stroke-linecap="round" stroke-linejoin="round"/>

  <!-- Reindeer silhouette outline -->
  <!-- Body -->
  <ellipse cx="1060" cy="170" rx="52" ry="34" stroke="#8B4513" fill="none" stroke-width="1.8" opacity="0.45"/>
  <!-- Head -->
  <ellipse cx="1060" cy="146" rx="17" ry="14" stroke="#8B4513" fill="none" stroke-width="1.8" opacity="0.45"/>
  <!-- Left antler -->
  <path d="M1050 136 L1042 120 L1038 112 M1042 120 L1034 116" stroke="#8B4513" fill="none" stroke-width="1.8" opacity="0.45" stroke-linecap="round"/>
  <!-- Right antler -->
  <path d="M1070 136 L1078 120 L1082 112 M1078 120 L1086 116" stroke="#8B4513" fill="none" stroke-width="1.8" opacity="0.45" stroke-linecap="round"/>
  <!-- Legs -->
  <line x1="1038" y1="200" x2="1032" y2="224" stroke="#8B4513" stroke-width="1.8" opacity="0.45" stroke-linecap="round"/>
  <line x1="1050" y1="203" x2="1048" y2="228" stroke="#8B4513" stroke-width="1.8" opacity="0.45" stroke-linecap="round"/>
  <line x1="1070" y1="203" x2="1072" y2="228" stroke="#8B4513" stroke-width="1.8" opacity="0.45" stroke-linecap="round"/>
  <line x1="1082" y1="200" x2="1088" y2="224" stroke="#8B4513" stroke-width="1.8" opacity="0.45" stroke-linecap="round"/>
  <!-- Red nose -->
  <circle cx="1060" cy="154" r="4" fill="#ff6b6b" opacity="0.7"/>
  <!-- Eye -->
  <circle cx="1054" cy="142" r="2" fill="#8B4513" opacity="0.5"/>

  <!-- Preview caption -->
  <text x="750" y="274" font-size="11" fill="#b4b7bd">Vorschau · Weihnachts-Rentier.pes · 85,3 × 72,1 mm</text>

  <!-- ── NAME ── -->
  <text x="740" y="300" font-size="10" font-weight="700" fill="#7b7c80" letter-spacing="0.8">NAME</text>
  <rect x="740" y="306" width="680" height="32" rx="6" fill="#f5f5f7" stroke="#e5e7eb" stroke-width="1"/>
  <text x="752" y="327" font-size="13" fill="#111111">Weihnachts-Rentier</text>

  <!-- ── THEMA ── -->
  <text x="740" y="354" font-size="10" font-weight="700" fill="#7b7c80" letter-spacing="0.8">THEMA</text>
  <rect x="740" y="360" width="680" height="32" rx="6" fill="#f5f5f7" stroke="#e5e7eb" stroke-width="1"/>
  <text x="752" y="381" font-size="13" fill="#111111">Weihnachten</text>

  <!-- ── TAGS ── -->
  <text x="740" y="408" font-size="10" font-weight="700" fill="#7b7c80" letter-spacing="0.8">TAGS</text>
  <rect x="740" y="414" width="680" height="36" rx="6" fill="#f5f5f7" stroke="#e5e7eb" stroke-width="1"/>
  <!-- tag chips inside -->
  <rect x="748" y="422" width="76" height="20" rx="10" fill="#e8f2ff"/>
  <text x="786" y="436" font-size="11" fill="#086dd6" text-anchor="middle">Weihnachten</text>
  <rect x="830" y="422" width="52" height="20" rx="10" fill="#e8f2ff"/>
  <text x="856" y="436" font-size="11" fill="#086dd6" text-anchor="middle">Rentier</text>
  <rect x="888" y="422" width="44" height="20" rx="10" fill="#e8f2ff"/>
  <text x="910" y="436" font-size="11" fill="#086dd6" text-anchor="middle">Natur</text>

  <!-- ── BESCHREIBUNG ── -->
  <text x="740" y="466" font-size="10" font-weight="700" fill="#7b7c80" letter-spacing="0.8">BESCHREIBUNG</text>
  <rect x="740" y="472" width="680" height="64" rx="6" fill="#f5f5f7" stroke="#e5e7eb" stroke-width="1"/>
  <text x="752" y="490" font-size="13" fill="#111111">Weihnachtliches Rentiermotiv mit filigranen Stickdetails —</text>
  <text x="752" y="506" font-size="13" fill="#111111">ideal für Advents-Dekoration und Kissenbezüge.</text>
  <text x="752" y="522" font-size="11" fill="#b4b7bd">(KI-generiert · llama3.2-vision · vom Benutzer bestätigt)</text>

  <!-- ── FARBEN ── -->
  <text x="740" y="552" font-size="10" font-weight="700" fill="#7b7c80" letter-spacing="0.8">FARBEN</text>
  <!-- swatches -->
  <rect x="740" y="558" width="22" height="22" rx="4" fill="#8B4513" stroke="#d1d5db" stroke-width="1"/>
  <rect x="768" y="558" width="22" height="22" rx="4" fill="#D2691E" stroke="#d1d5db" stroke-width="1"/>
  <rect x="796" y="558" width="22" height="22" rx="4" fill="#228B22" stroke="#d1d5db" stroke-width="1"/>
  <rect x="824" y="558" width="22" height="22" rx="4" fill="#FFD700" stroke="#d1d5db" stroke-width="1"/>
  <rect x="852" y="558" width="22" height="22" rx="4" fill="#DC143C" stroke="#d1d5db" stroke-width="1"/>
  <rect x="880" y="558" width="22" height="22" rx="4" fill="#FFFFFF" stroke="#d1d5db" stroke-width="1"/>
  <text x="910" y="573" font-size="12" fill="#7b7c80">6 Farben · Madeira, Gütermann</text>

  <!-- ── ABMESSUNGEN &amp; STICHE ── -->
  <text x="740" y="598" font-size="10" font-weight="700" fill="#7b7c80" letter-spacing="0.8">ABMESSUNGEN &amp; STICHE</text>
  <text x="740" y="618" font-size="13" fill="#44474f">85,3 × 72,1 mm · 12.450 Stiche</text>

  <!-- ── FORMATE ── -->
  <text x="740" y="640" font-size="10" font-weight="700" fill="#7b7c80" letter-spacing="0.8">FORMATE</text>
  <rect x="740" y="646" width="36" height="20" rx="10" fill="#e8f2ff"/>
  <text x="758" y="660" font-size="11" fill="#086dd6" text-anchor="middle">PES</text>
  <rect x="782" y="646" width="36" height="20" rx="10" fill="#e8f2ff"/>
  <text x="800" y="660" font-size="11" fill="#086dd6" text-anchor="middle">DST</text>

  <!-- ── LIZENZ ── -->
  <text x="740" y="682" font-size="10" font-weight="700" fill="#7b7c80" letter-spacing="0.8">LIZENZ</text>
  <rect x="740" y="688" width="680" height="30" rx="6" fill="#f5f5f7" stroke="#e5e7eb" stroke-width="1"/>
  <text x="752" y="708" font-size="13" fill="#44474f">Creative Commons BY-NC 4.0</text>

  <!-- ── KI STATUS BADGE ── -->
  <rect x="740" y="732" width="120" height="24" rx="12" fill="#dcfce7"/>
  <circle cx="756" cy="744" r="4" fill="#51cf66"/>
  <text x="764" y="748" font-size="12" fill="#2f9e44" font-weight="500">KI Analysiert</text>
  <text x="870" y="748" font-size="12" fill="#7b7c80">llama3.2-vision · 2026-03-01</text>

  <!-- ── ACTION BUTTONS ── -->
  <!-- Primary: Speichern -->
  <rect x="740" y="768" width="128" height="36" rx="8" fill="#0a84ff"/>
  <text x="804" y="791" font-size="13" fill="#ffffff" font-weight="500" text-anchor="middle">Speichern</text>

  <!-- Ghost: Verwerfen -->
  <rect x="876" y="768" width="128" height="36" rx="8" fill="none" stroke="#d1d5db" stroke-width="1"/>
  <text x="940" y="791" font-size="13" fill="#44474f" text-anchor="middle">Verwerfen</text>

  <!-- Accent ghost: KI Analyse -->
  <rect x="1012" y="768" width="128" height="36" rx="8" fill="none" stroke="#0a84ff" stroke-width="1"/>
  <text x="1076" y="791" font-size="13" fill="#0a84ff" text-anchor="middle">KI Analyse</text>

  <!-- Ghost: Auf USB (with icon) -->
  <rect x="1148" y="768" width="128" height="36" rx="8" fill="none" stroke="#d1d5db" stroke-width="1"/>
  <g transform="translate(1164,780)" stroke="#44474f" fill="none" stroke-width="1.5" stroke-linecap="round" stroke-linejoin="round">
    <line x1="6" y1="0" x2="6" y2="10"/>
    <path d="M2 8 L6 13 L10 8"/>
    <line x1="3" y1="3" x2="3" y2="6"/>
    <line x1="9" y1="2" x2="9" y2="5"/>
  </g>
  <text x="1220" y="791" font-size="13" fill="#44474f" text-anchor="middle">Auf USB</text>

  <!-- ── STATUS STRIP (bottom of right panel) ── -->
  <rect x="720" y="832" width="720" height="46" fill="#f5f5f7"/>
  <line x1="720" y1="832" x2="1440" y2="832" stroke="#e5e7eb" stroke-width="1"/>
  <text x="740" y="852" font-size="11" fill="#7b7c80">184,7 KB</text>
  <rect x="788" y="842" width="32" height="16" rx="8" fill="#e8f2ff"/>
  <text x="804" y="854" font-size="10" fill="#086dd6" text-anchor="middle">PES</text>
  <rect x="826" y="842" width="32" height="16" rx="8" fill="#e8f2ff"/>
  <text x="842" y="854" font-size="10" fill="#086dd6" text-anchor="middle">DST</text>
  <text x="866" y="852" font-size="11" fill="#7b7c80">v5</text>
  <text x="1420" y="869" font-size="11" fill="#b4b7bd" text-anchor="end">zuletzt gespeichert: heute 14:32</text>

  <!-- ══════════════════════════════════════════════════════════
       STATUS BAR   y=878  h=22
       ══════════════════════════════════════════════════════════ -->
  <rect x="0" y="878" width="1440" height="22" fill="#f5f5f7"/>
  <line x1="0" y1="878" x2="1440" y2="878" stroke="#d1d5db" stroke-width="0.5"/>
  <text x="12" y="893" font-size="11" fill="#7b7c80">PES: 12  ·  DST: 4  ·  JEF: 8  ·  Sonstige: 14  ·  Gesamt: 38 Dateien</text>
  <text x="1428" y="893" font-size="11" fill="#7b7c80" text-anchor="end">Weihnachten · 38 Dateien</text>

</svg>
